<?xml version="1.0" encoding="utf-8"?>
<!-- Generator: Adobe Illustrator 27.8.0, SVG Export Plug-In . SVG Version: 6.00 Build 0)  -->
<svg version="1.1" id="Group_2753" xmlns="http://www.w3.org/2000/svg" xmlns:xlink="http://www.w3.org/1999/xlink" x="0px" y="0px"
	 viewBox="0 0 24 24" style="enable-background:new 0 0 24 24;" xml:space="preserve">
<style type="text/css">
	.st0{clip-path:url(#SVGID_00000129924451967928789530000001449751963530383027_);}
	.st1{fill:#FFFFFF;}
</style>
<g>
	<defs>
		<rect id="SVGID_1_" x="0" width="24" height="24.1"/>
	</defs>
	<clipPath id="SVGID_00000049942477651867190270000012747872953269298065_">
		<use xlink:href="#SVGID_1_"  style="overflow:visible;"/>
	</clipPath>
	<g id="Group_2752" style="clip-path:url(#SVGID_00000049942477651867190270000012747872953269298065_);">
		<path id="Path_1045" class="st1" d="M19.8,12.3c1.3-0.5,2.8-0.7,4.2-0.7C23.8,5.3,18.7,0.2,12.5,0c0,0,0,0.1,0,0.1
			c0,1.4-0.2,2.8-0.7,4.1l-2.8-1c0.3-0.9,0.5-1.9,0.5-2.9c-4.5,1-8.1,4.5-9.2,9c1.2,0,2.3-0.2,3.4-0.6l1.1,2.8
			c-1.4,0.6-3,0.8-4.5,0.8c-0.1,0-0.2,0-0.4,0c0.1,6.5,5.3,11.7,11.8,11.8c-0.1-1.7,0.2-3.3,0.8-4.9l2.8,1.1
			c-0.4,1.1-0.6,2.2-0.6,3.4v0.1c4.5-1.1,8-4.6,9-9.2c-1,0-2,0.2-2.9,0.5L19.8,12.3z M8.8,8.8c-0.5,0.5-1.1,1-1.7,1.4L5.4,7.7
			c0.4-0.3,0.9-0.6,1.2-1l0,0c0.5-0.5,1-1.1,1.4-1.8l2.6,1.6C10.1,7.4,9.5,8.1,8.8,8.8 M17.3,17.3c-0.4,0.4-0.7,0.8-1,1.2l-2.5-1.7
			c0.4-0.6,0.9-1.2,1.4-1.7l0,0c0.7-0.7,1.5-1.3,2.3-1.8l1.6,2.6C18.4,16.3,17.8,16.8,17.3,17.3"/>
	</g>
</g>
</svg>
