<svg id="Group_1001" data-name="Group 1001" xmlns="http://www.w3.org/2000/svg" xmlns:xlink="http://www.w3.org/1999/xlink" width="15.837" height="15.837" viewBox="0 0 15.837 15.837">
  <defs>
    <clipPath id="clip-path">
      <rect id="Rectangle_1010" data-name="Rectangle 1010" width="15.837" height="15.837" fill="none"/>
    </clipPath>
  </defs>
  <g id="Group_1000" data-name="Group 1000" clip-path="url(#clip-path)">
    <path id="Path_621" data-name="Path 621" d="M13.518,2.319a7.919,7.919,0,0,1,.32,10.859q-.154.173-.32.339t-.339.32A7.918,7.918,0,0,1,2,2.658q.154-.173.32-.339T2.659,2a7.919,7.919,0,0,1,10.859.32" transform="translate(0 0)" fill="#e72447"/>
    <path id="Path_622" data-name="Path 622" d="M32.835,32.171,44.014,43.35q-.154.173-.32.339t-.339.32L32.176,32.83q.154-.173.32-.339t.339-.32" transform="translate(-30.176 -30.172)" fill="#e3e3e2"/>
    <path id="Path_623" data-name="Path 623" d="M72.678,26.987l.784.784.659-.659-.784-.784ZM71.11,25.419l.784.784.659-.659-.784-.784Zm-1.568-1.568.784.784.659-.659-.784-.784Zm-1.568-1.568.784.784.659-.659-.784-.784ZM66.4,20.714l.784.784.659-.659-.784-.784Zm-1.568-1.568.784.784.659-.659-.784-.784Zm-1.568-1.568.784.784.659-.659-.784-.784Z" transform="translate(-59.336 -15.867)" fill="#e3e3e2"/>
    <path id="Path_624" data-name="Path 624" d="M26.327,73.338l.784.784.659-.659-.784-.784ZM24.759,71.77l.784.784.659-.659-.784-.784ZM23.191,70.2l.784.784.659-.659-.784-.784Zm-1.568-1.568.784.784.659-.659-.784-.784Zm-1.569-1.569.784.784.659-.659-.784-.784ZM18.485,65.5l.784.784.659-.659-.784-.784Zm-1.568-1.568.784.784.659-.659-.784-.784Z" transform="translate(-15.866 -59.337)" fill="#e3e3e2"/>
  </g>
</svg>
