<?xml version="1.0" encoding="utf-8"?>
<!-- Generator: Adobe Illustrator 28.0.0, SVG Export Plug-In . SVG Version: 6.00 Build 0)  -->
<svg version="1.1" id="Group_2771" xmlns="http://www.w3.org/2000/svg" xmlns:xlink="http://www.w3.org/1999/xlink" x="0px" y="0px"
	 viewBox="0 0 24 24" style="enable-background:new 0 0 24 24;" xml:space="preserve">
<style type="text/css">
	.st0{fill:#FFFFFF;}
</style>
<g>
	<path class="st0" d="M10.8,1.8L3.3,16.2c-0.6,1.2-0.1,2.7,1.1,3.4l7.2,3.8c1.2,0.6,2.7,0.1,3.4-1.1l7.5-14.4
		c0.7-1.3,0.2-2.8-1.1-3.5l-7.1-3.7C13,0,11.5,0.5,10.8,1.8z M10.3,8.8c0.3-0.4,0.9-0.7,1.6-0.7c1.4,0,2,1.8,2.1,1.9
		c0.1,0,1.9-0.5,2.7,0.6c0.4,0.5,0.5,1.2,0.4,1.7c-0.3,1.4-2.4,2.4-5.2,2.5c-0.3,0.1-0.6-0.1-0.7-0.3C9.6,12.1,9.3,9.8,10.3,8.8z"/>
	<path class="st0" d="M2.8,15L9.9,1.4L8.2,1c-1.4-0.3-2.7,0.6-3,2L2.8,15z"/>
	<path class="st0" d="M2.2,14.2L3.9,3.8L2.8,3.9c-1,0.1-1.7,1-1.6,2L2.2,14.2z"/>
</g>
</svg>
