<?xml version="1.0" encoding="utf-8"?>
<!-- Generator: Adobe Illustrator 27.8.0, SVG Export Plug-In . SVG Version: 6.00 Build 0)  -->
<svg version="1.1" id="Group_2769" xmlns="http://www.w3.org/2000/svg" xmlns:xlink="http://www.w3.org/1999/xlink" x="0px" y="0px"
	 viewBox="0 0 24 24" style="enable-background:new 0 0 24 24;" xml:space="preserve">
<style type="text/css">
	.st0{fill:#FFFFFF;}
</style>
<g>
	<g id="Group_2768">
		<path id="Path_1059" class="st0" d="M24,12c0,6.6-5.4,12-12,12C5.4,24,0,18.7,0,12S5.4,0,12,0c0,0,0,0,0,0C18.7,0.1,24,5.4,24,12z
			 M12,19.2c4,0,7.2-3.2,7.2-7.2S15.9,4.9,12,4.9c-4,0-7.2,3.2-7.2,7.2C4.8,16,8,19.2,12,19.2C12,19.2,12,19.2,12,19.2z M23,14.8
			c0.5-1.8,0.5-3.8,0-5.6l-3.3,1v3.7L23,14.8L23,14.8z M9.7,4.4c-0.2-1-0.5-2.2-0.8-3.3C7.1,1.6,5.4,2.6,4.1,3.9l2.5,2.3L9.7,4.4
			L9.7,4.4z M17.5,6.3l2.5-2.3c-1.4-1.3-3-2.3-4.9-2.8l-0.8,3.3L17.5,6.3z M4.1,20.1c1.4,1.3,3,2.3,4.9,2.8c0.3-1.2,0.5-2.3,0.8-3.3
			l-3.2-1.9L4.1,20.1 M14.3,19.7c0.2,1,0.5,2.1,0.8,3.3c1.8-0.5,3.5-1.5,4.9-2.8l-2.5-2.3L14.3,19.7L14.3,19.7z M1.1,14.8l3.2-1
			v-3.7L1,9.2C0.5,11.1,0.5,13,1.1,14.8z"/>
		<path id="Path_1060" class="st0" d="M11.9,18.3c-3.5-0.1-6.2-2.9-6.2-6.4c0.1-3.5,2.9-6.2,6.4-6.2c3.5,0.1,6.2,2.9,6.2,6.3
			C18.3,15.6,15.4,18.3,11.9,18.3C11.9,18.3,11.9,18.3,11.9,18.3z M12.3,13.9l0.2-0.1c0.2,0.1,0.5,0.2,0.7,0.3
			c0.7,0.2,1.4,0,1.8-0.6c0.4-0.5,0.3-1.3-0.1-1.8c-0.9-1.1-1.9-2.1-2.8-3c-0.8,0.8-1.6,1.7-2.4,2.5c-0.2,0.2-0.4,0.4-0.5,0.6
			c-0.4,0.5-0.4,1.2,0,1.6c0.4,0.5,1,0.7,1.6,0.6c0.3-0.1,0.6-0.2,0.9-0.3l0.2,0.1l-0.8,1.5h2.2L12.3,13.9L12.3,13.9z"/>
	</g>
</g>
</svg>
