<svg xmlns="http://www.w3.org/2000/svg" width="45" height="45" viewBox="0 0 45 45">
  <g id="Group_3448" data-name="Group 3448" transform="translate(-92 -82)">
    <path id="Path_10846" data-name="Path 10846" d="M41.018,3.981C44.629,7.329,44.864,14.914,45,22.5c-.136,7.585-.371,15.17-3.982,18.518C37.67,44.628,30.085,44.863,22.5,45c-7.585-.136-15.17-.371-18.518-3.982C.371,37.669.136,30.084,0,22.5.136,14.914.371,7.329,3.982,3.981,7.33.37,14.915.135,22.5,0,30.085.135,37.67.37,41.018,3.981" transform="translate(92 82.001)" fill="#707070"/>
    <path id="Subtraction_1" data-name="Subtraction 1" d="M-1986.065-4395.13a15.831,15.831,0,0,1-11.268-4.667,15.829,15.829,0,0,1-4.667-11.268,15.83,15.83,0,0,1,4.667-11.267,15.831,15.831,0,0,1,11.268-4.667,15.829,15.829,0,0,1,11.267,4.667,15.829,15.829,0,0,1,4.667,11.267,15.83,15.83,0,0,1-4.667,11.268A15.829,15.829,0,0,1-1986.065-4395.13Zm-2.026-9.583a.14.14,0,0,0-.07.018.137.137,0,0,0-.052.051.154.154,0,0,0-.021.07.144.144,0,0,0,.018.071,2.867,2.867,0,0,0,1.049,1.1,2.879,2.879,0,0,0,1.465.406,2.872,2.872,0,0,0,1.467-.406,2.875,2.875,0,0,0,1.05-1.1.161.161,0,0,0,.017-.071.154.154,0,0,0-.021-.07.144.144,0,0,0-.052-.051.14.14,0,0,0-.07-.018Zm2.39-14.286a2.283,2.283,0,0,0-2.118,1.734.133.133,0,0,1-.029.023c-2.014.83-2.993,2.42-2.993,4.862,0,2.694-.474,3.266-1.26,4.213l-.021.026-.049.059-.105.128a1.246,1.246,0,0,0-.279.646,1.261,1.261,0,0,0,.113.7,1.337,1.337,0,0,0,1.227.752h11.031a1.334,1.334,0,0,0,1.221-.75,1.252,1.252,0,0,0,.115-.7,1.255,1.255,0,0,0-.279-.649l-.046-.055-.033-.04-.1-.116c-.786-.951-1.261-1.525-1.261-4.214a5.441,5.441,0,0,0-.99-3.392,4.648,4.648,0,0,0-2-1.47.139.139,0,0,1-.03-.023A2.283,2.283,0,0,0-1985.7-4419Z" transform="translate(2100.565 4516)" fill="#fff"/>
  </g>
</svg>
