<svg width="28" height="31" viewBox="0 0 28 31" fill="none" xmlns="http://www.w3.org/2000/svg">
<path d="M0 22.5428L12.9231 30.154V16.9617L0 9.28857V22.5428ZM9.69231 17.2309C10.2873 17.2309 10.7692 17.9544 10.7692 18.8463C10.7692 19.7381 10.2873 20.4617 9.69231 20.4617C9.09731 20.4617 8.61538 19.7381 8.61538 18.8463C8.61538 17.9544 9.09731 17.2309 9.69231 17.2309ZM3.23077 19.3847C3.82577 19.3847 4.30769 20.1083 4.30769 21.0001C4.30769 21.8919 3.82577 22.6155 3.23077 22.6155C2.63577 22.6155 2.15385 21.8919 2.15385 21.0001C2.15385 20.1083 2.63577 19.3847 3.23077 19.3847Z" fill="white"/>
<path d="M15.0769 16.9617V30.154L28 22.5428V9.28857L15.0769 16.9617ZM18.3077 26.3847C17.7127 26.3847 17.2308 25.6612 17.2308 24.7693C17.2308 23.8775 17.7127 23.154 18.3077 23.154C18.9027 23.154 19.3846 23.8775 19.3846 24.7693C19.3846 25.6612 18.9027 26.3847 18.3077 26.3847ZM18.3077 20.4617C17.7127 20.4617 17.2308 19.7381 17.2308 18.8463C17.2308 17.9544 17.7127 17.2309 18.3077 17.2309C18.9027 17.2309 19.3846 17.9544 19.3846 18.8463C19.3846 19.7381 18.9027 20.4617 18.3077 20.4617ZM24.7692 22.6155C24.1742 22.6155 23.6923 21.8919 23.6923 21.0001C23.6923 20.1083 24.1742 19.3847 24.7692 19.3847C25.3642 19.3847 25.8461 20.1083 25.8461 21.0001C25.8461 21.8919 25.3642 22.6155 24.7692 22.6155ZM24.7692 16.6924C24.1742 16.6924 23.6923 15.9689 23.6923 15.077C23.6923 14.1852 24.1742 13.4617 24.7692 13.4617C25.3642 13.4617 25.8461 14.1852 25.8461 15.077C25.8461 15.9689 25.3642 16.6924 24.7692 16.6924Z" fill="white"/>
<path d="M14 0L1.0769 7.53846L14 15.0769L26.9231 7.53846L14 0ZM14 8.07692C13.1082 8.07692 12.3846 7.595 12.3846 7C12.3846 6.405 13.1082 5.92308 14 5.92308C14.8918 5.92308 15.6154 6.405 15.6154 7C15.6154 7.595 14.8918 8.07692 14 8.07692Z" fill="white"/>
</svg>
