<svg width="19" height="19" viewBox="0 0 19 19" fill="none" xmlns="http://www.w3.org/2000/svg">
<path d="M7.87 17.8404L0.55 10.5204C0.19 10.1704 0 9.69036 0 9.19036C0 8.69036 0.19 8.21036 0.55 7.86036L7.87 0.550358C8.21 0.190358 8.69 -0.00964218 9.19 0.000357821C9.69 0.000357821 10.17 0.200358 10.52 0.560358L17.84 7.88036C18.2 8.23036 18.4 8.71036 18.4 9.21036C18.41 9.71036 18.21 10.1904 17.85 10.5404L10.53 17.8604C9.8 18.5904 8.6 18.5904 7.87 17.8604V17.8404ZM10.2 2.87036C9.94 2.60036 9.57 2.45036 9.2 2.46036C8.82 2.46036 8.46 2.61036 8.2 2.88036C7.93 3.14036 7.78 3.50036 7.79 3.87036C7.79 4.25036 7.94 4.61036 8.21 4.87036C8.47 5.14036 8.83 5.29036 9.21 5.29036C9.58 5.29036 9.94 5.15036 10.2 4.88036C10.47 4.62036 10.62 4.26036 10.62 3.88036C10.62 3.50036 10.48 3.14036 10.21 2.88036L10.2 2.87036ZM4.88 8.19036C4.33 7.64036 3.44 7.64036 2.88 8.19036C2.32 8.74036 2.33 9.63036 2.88 10.1904C3.43 10.7504 4.32 10.7404 4.88 10.1904C5.44 9.64036 5.43 8.75036 4.88 8.19036ZM10.2 8.19036C9.94 7.92036 9.57 7.77036 9.2 7.78036C8.82 7.78036 8.46 7.93036 8.2 8.20036C7.65 8.75036 7.66 9.64036 8.2 10.1904C8.75 10.7404 9.64 10.7404 10.19 10.1904C10.46 9.93036 10.61 9.57036 10.61 9.19036C10.61 8.81036 10.47 8.45036 10.2 8.19036ZM15.52 8.19036C15.26 7.92036 14.89 7.77036 14.52 7.78036C14.14 7.78036 13.78 7.93036 13.52 8.20036C12.97 8.76036 12.98 9.65036 13.53 10.2004C13.79 10.4604 14.15 10.6104 14.52 10.6104C14.89 10.6104 15.25 10.4704 15.51 10.2004C15.78 9.94036 15.93 9.58036 15.93 9.20036C15.93 8.82036 15.79 8.46036 15.52 8.20036V8.19036ZM10.2 13.5104C9.65 12.9604 8.76 12.9704 8.21 13.5104C7.66 14.0604 7.67 14.9504 8.21 15.5004C8.76 16.0504 9.65 16.0404 10.2 15.5004C10.46 15.2404 10.61 14.8804 10.61 14.5104C10.61 14.1304 10.46 13.7704 10.19 13.5104H10.2Z" fill="#3D3D3D"/>
</svg>
