<svg width="20" height="20" viewBox="0 0 20 20" fill="none" xmlns="http://www.w3.org/2000/svg">
<path d="M13.5925 0H5.56534C2.07862 0 0 2.07862 0 5.56534V13.5829C0 17.0792 2.07862 19.1578 5.56534 19.1578H13.5829C17.0696 19.1578 19.1482 17.0792 19.1482 13.5925V5.56534C19.1578 2.07862 17.0792 0 13.5925 0ZM9.5789 13.2955C7.52902 13.2955 5.86229 11.6288 5.86229 9.5789C5.86229 7.52902 7.52902 5.86229 9.5789 5.86229C11.6288 5.86229 13.2955 7.52902 13.2955 9.5789C13.2955 11.6288 11.6288 13.2955 9.5789 13.2955ZM15.2496 4.6745C15.2017 4.78945 15.1347 4.89482 15.0485 4.99061C14.9527 5.07682 14.8473 5.14387 14.7323 5.19176C14.6174 5.23966 14.4929 5.2684 14.3684 5.2684C14.1097 5.2684 13.8703 5.17261 13.6883 4.99061C13.602 4.89482 13.535 4.78945 13.4871 4.6745C13.4392 4.55956 13.4105 4.43503 13.4105 4.31051C13.4105 4.18598 13.4392 4.06145 13.4871 3.94651C13.535 3.82198 13.602 3.72619 13.6883 3.6304C13.9086 3.41009 14.2438 3.30472 14.5504 3.37177C14.6174 3.38135 14.6749 3.40051 14.7323 3.42925C14.7898 3.4484 14.8473 3.47714 14.9048 3.51546C14.9527 3.54419 15.0006 3.59209 15.0485 3.6304C15.1347 3.72619 15.2017 3.82198 15.2496 3.94651C15.2975 4.06145 15.3262 4.18598 15.3262 4.31051C15.3262 4.43503 15.2975 4.55956 15.2496 4.6745Z" fill="#3D3D3D"/>
</svg>
