<!--
<?xml version="1.0" encoding="UTF-8"?>
<!DOCTYPE svg PUBLIC "-//W3C//DTD SVG 1.1//EN" "http://www.w3.org/Graphics/SVG/1.1/DTD/svg11.dtd">
-->
<svg width="273pt" height="185pt" viewBox="0 0 273 185" version="1.1" xmlns="http://www.w3.org/2000/svg">
	<g id="#fbfbfdff">
		<path fill="#000" opacity="1.00" d=" M 128.49 18.52 C 131.50 18.54 134.51 18.54 137.52 18.52 C 137.48 20.75 137.46 22.99 137.45 25.22 C 137.46 28.94 137.45 32.66 137.47 36.37 C 172.84 36.44 208.20 36.38 243.56 36.40 C 245.38 36.40 247.21 36.40 249.03 36.40 C 249.04 39.37 249.04 42.35 249.03 45.33 C 247.21 45.33 245.38 45.32 243.56 45.32 C 240.94 45.31 238.32 45.32 235.70 45.32 C 235.65 75.08 235.67 104.84 235.69 134.60 C 238.31 134.61 240.94 134.62 243.57 134.62 C 245.38 134.61 247.21 134.61 249.03 134.61 C 249.04 137.60 249.04 140.60 249.03 143.60 C 247.21 143.60 245.39 143.60 243.57 143.60 C 208.21 143.61 172.85 143.57 137.49 143.62 C 137.45 147.34 137.45 151.06 137.46 154.78 C 137.46 156.99 137.48 159.20 137.51 161.41 C 134.51 161.39 131.50 161.39 128.49 161.42 C 128.52 159.20 128.54 156.98 128.55 154.77 C 128.55 151.05 128.55 147.34 128.54 143.63 C 93.17 143.56 57.81 143.62 22.44 143.60 C 20.60 143.60 18.75 143.60 16.91 143.61 C 16.91 140.60 16.91 137.60 16.91 134.60 C 18.75 134.60 20.59 134.61 22.43 134.62 C 25.03 134.62 27.64 134.61 30.24 134.60 C 30.28 104.84 30.28 75.09 30.24 45.33 C 27.64 45.32 25.03 45.31 22.43 45.31 C 20.59 45.32 18.75 45.33 16.91 45.34 C 16.91 42.36 16.91 39.37 16.91 36.39 C 18.75 36.40 20.59 36.40 22.43 36.40 C 57.80 36.39 93.16 36.43 128.53 36.38 C 128.56 32.66 128.55 28.95 128.55 25.23 C 128.55 22.99 128.52 20.75 128.49 18.52 M 39.26 45.32 C 39.25 75.08 39.24 104.84 39.26 134.60 C 43.71 134.61 48.16 134.62 52.60 134.60 C 52.63 104.84 52.62 75.09 52.61 45.33 C 48.16 45.31 43.71 45.32 39.26 45.32 M 61.60 45.35 C 61.61 75.09 61.60 104.84 61.60 134.58 C 83.91 134.64 106.22 134.61 128.53 134.60 C 128.56 104.84 128.54 75.09 128.53 45.33 C 106.22 45.32 83.91 45.29 61.60 45.35 M 137.48 45.34 C 137.46 75.09 137.46 104.84 137.48 134.59 C 159.79 134.62 182.11 134.63 204.42 134.58 C 204.46 104.90 204.28 75.21 204.51 45.53 C 182.18 45.06 159.82 45.44 137.48 45.34 M 213.40 45.33 C 213.39 75.09 213.38 104.84 213.40 134.60 C 217.85 134.62 222.30 134.61 226.75 134.60 C 226.76 104.85 226.76 75.09 226.74 45.33 C 222.29 45.31 217.84 45.31 213.40 45.33 Z" />
	</g>
	<g id="#5a3392ff">
		<path fill="#5a3392" opacity="1.00" d=" M 8.00 9.65 C 91.33 9.64 174.67 9.63 258.01 9.65 C 258.00 63.22 258.04 116.79 257.99 170.36 C 174.66 170.35 91.33 170.37 7.99 170.35 C 7.99 116.78 7.98 63.21 8.00 9.65 M 16.88 18.52 C 16.93 24.48 16.88 30.44 16.91 36.39 C 16.91 39.37 16.91 42.36 16.91 45.34 C 16.90 75.09 16.90 104.85 16.91 134.60 C 16.91 137.60 16.91 140.60 16.91 143.61 C 16.89 149.54 16.93 155.47 16.88 161.40 C 54.09 161.40 91.29 161.37 128.49 161.42 C 131.50 161.39 134.51 161.39 137.51 161.41 C 174.69 161.37 211.86 161.40 249.03 161.40 C 249.04 155.47 249.04 149.53 249.03 143.60 C 249.04 140.60 249.04 137.60 249.03 134.61 C 249.04 104.85 249.04 75.09 249.03 45.33 C 249.04 42.35 249.04 39.37 249.03 36.40 C 249.05 30.44 249.03 24.49 249.05 18.53 C 211.87 18.53 174.70 18.56 137.52 18.52 C 134.51 18.54 131.50 18.54 128.49 18.52 C 91.28 18.56 54.08 18.54 16.88 18.52 Z" />
	</g>
	<g id="#29a3ecff">
		<path fill="#fff" opacity="1.00" d=" M 16.88 18.52 C 54.08 18.54 91.28 18.56 128.49 18.52 C 128.52 20.75 128.55 22.99 128.55 25.23 C 93.21 25.36 57.86 25.12 22.52 25.34 C 22.49 29.03 22.45 32.72 22.43 36.40 C 20.59 36.40 18.75 36.40 16.91 36.39 C 16.88 30.44 16.93 24.48 16.88 18.52 Z" />
		<path fill="#fff" opacity="1.00" d=" M 137.52 18.52 C 174.70 18.56 211.87 18.53 249.05 18.53 C 249.03 24.49 249.05 30.44 249.03 36.40 C 247.21 36.40 245.38 36.40 243.56 36.40 C 243.55 32.72 243.51 29.03 243.49 25.35 C 208.15 25.11 172.80 25.36 137.45 25.22 C 137.46 22.99 137.48 20.75 137.52 18.52 Z" />
		<path fill="#fff" opacity="1.00" d=" M 16.91 45.34 C 18.75 45.33 20.59 45.32 22.43 45.31 C 22.53 75.08 22.54 104.85 22.43 134.62 C 20.59 134.61 18.75 134.60 16.91 134.60 C 16.90 104.85 16.90 75.09 16.91 45.34 Z" />
		<path fill="#fff" opacity="1.00" d=" M 243.56 45.32 C 245.38 45.32 247.21 45.33 249.03 45.33 C 249.04 75.09 249.04 104.85 249.03 134.61 C 247.21 134.61 245.38 134.61 243.57 134.62 C 243.47 104.85 243.47 75.08 243.56 45.32 Z" />
		<path fill="#fff" opacity="1.00" d=" M 16.91 143.61 C 18.75 143.60 20.60 143.60 22.44 143.60 C 22.45 147.28 22.49 150.97 22.51 154.65 C 57.86 154.89 93.20 154.64 128.55 154.77 C 128.54 156.98 128.52 159.20 128.49 161.42 C 91.29 161.37 54.09 161.40 16.88 161.40 C 16.93 155.47 16.89 149.54 16.91 143.61 Z" />
		<path fill="#fff" opacity="1.00" d=" M 243.57 143.60 C 245.39 143.60 247.21 143.60 249.03 143.60 C 249.04 149.53 249.04 155.47 249.03 161.40 C 211.86 161.40 174.69 161.37 137.51 161.41 C 137.48 159.20 137.46 156.99 137.46 154.78 C 172.80 154.63 208.14 154.89 243.49 154.65 C 243.51 150.97 243.55 147.28 243.57 143.60 Z" />
	</g>
	<g id="#3cdef6ff">
		<path fill="#fff" opacity="1.00" d=" M 22.52 25.34 C 57.86 25.12 93.21 25.36 128.55 25.23 C 128.55 28.95 128.56 32.66 128.53 36.38 C 93.16 36.43 57.80 36.39 22.43 36.40 C 22.45 32.72 22.49 29.03 22.52 25.34 Z" />
		<path fill="#fff" opacity="1.00" d=" M 137.45 25.22 C 172.80 25.36 208.15 25.11 243.49 25.35 C 243.51 29.03 243.55 32.72 243.56 36.40 C 208.20 36.38 172.84 36.44 137.47 36.37 C 137.45 32.66 137.46 28.94 137.45 25.22 Z" />
		<path fill="#fff" opacity="1.00" d=" M 39.26 45.32 C 43.71 45.32 48.16 45.31 52.61 45.33 C 52.62 75.09 52.63 104.84 52.60 134.60 C 48.16 134.62 43.71 134.61 39.26 134.60 C 39.24 104.84 39.25 75.08 39.26 45.32 Z" />
		<path fill="#fff" opacity="1.00" d=" M 61.60 45.35 C 83.91 45.29 106.22 45.32 128.53 45.33 C 128.54 75.09 128.56 104.84 128.53 134.60 C 106.22 134.61 83.91 134.64 61.60 134.58 C 61.60 104.84 61.61 75.09 61.60 45.35 Z" />
		<path fill="#fff" opacity="1.00" d=" M 137.48 45.34 C 159.82 45.44 182.18 45.06 204.51 45.53 C 204.28 75.21 204.46 104.90 204.42 134.58 C 182.11 134.63 159.79 134.62 137.48 134.59 C 137.46 104.84 137.46 75.09 137.48 45.34 Z" />
		<path fill="#fff" opacity="1.00" d=" M 213.40 45.33 C 217.84 45.31 222.29 45.31 226.74 45.33 C 226.76 75.09 226.76 104.85 226.75 134.60 C 222.30 134.61 217.85 134.62 213.40 134.60 C 213.38 104.84 213.39 75.09 213.40 45.33 Z" />
		<path fill="#fff" opacity="1.00" d=" M 22.43 45.31 C 25.03 45.31 27.64 45.32 30.24 45.33 C 30.28 75.09 30.28 104.84 30.24 134.60 C 27.64 134.61 25.03 134.62 22.43 134.62 C 22.54 104.85 22.53 75.08 22.43 45.31 Z" />
		<path fill="#fff" opacity="1.00" d=" M 235.70 45.32 C 238.32 45.32 240.94 45.31 243.56 45.32 C 243.47 75.08 243.47 104.85 243.57 134.62 C 240.94 134.62 238.31 134.61 235.69 134.60 C 235.67 104.84 235.65 75.08 235.70 45.32 Z" />
		<path fill="#fff" opacity="1.00" d=" M 22.44 143.60 C 57.81 143.62 93.17 143.56 128.54 143.63 C 128.55 147.34 128.55 151.05 128.55 154.77 C 93.20 154.64 57.86 154.89 22.51 154.65 C 22.49 150.97 22.45 147.28 22.44 143.60 Z" />
		<path fill="#fff" opacity="1.00" d=" M 137.49 143.62 C 172.85 143.57 208.21 143.61 243.57 143.60 C 243.55 147.28 243.51 150.97 243.49 154.65 C 208.14 154.89 172.80 154.63 137.46 154.78 C 137.45 151.06 137.45 147.34 137.49 143.62 Z" />
	</g>
</svg>
