<?xml version="1.0" encoding="utf-8"?>
<!-- Generator: Adobe Illustrator 28.0.0, SVG Export Plug-In . SVG Version: 6.00 Build 0)  -->
<svg version="1.1" id="Layer_1" xmlns="http://www.w3.org/2000/svg" xmlns:xlink="http://www.w3.org/1999/xlink" x="0px" y="0px"
	 viewBox="0 0 100 1600" style="enable-background:new 0 0 100 1600;" xml:space="preserve">
<style type="text/css">
	.st0{fill:none;}
	.st1{fill:#DB469A;}
	.st2{fill:#A0A0A0;}
	.st3{fill-rule:evenodd;clip-rule:evenodd;fill:#DB469A;}
	.st4{fill-rule:evenodd;clip-rule:evenodd;fill:#A0A0A0;}
</style>
<rect class="st0" width="100" height="100"/>
<rect y="100" class="st0" width="100" height="100"/>
<rect y="200" class="st0" width="100" height="100"/>
<rect y="300" class="st0" width="100" height="100"/>
<rect y="400" class="st0" width="100" height="100"/>
<rect y="500" class="st0" width="100" height="100"/>
<rect y="600" class="st0" width="100" height="100"/>
<rect y="700" class="st0" width="100" height="100"/>
<g>
	<path class="st1" d="M61.6,675H38.4c-2.5-0.1-4.9-1.3-6.4-3.3s-2.1-4.6-1.5-7.1l0.6-2.8c0.7-3.9,4-6.7,7.9-6.8h22
		c3.9,0.1,7.2,2.9,7.9,6.8l0.6,2.8c0.6,2.5,0,5.1-1.5,7.1S64.1,674.9,61.6,675z"/>
	<path class="st1" d="M51.2,650h-2.5c-5.5,0-10-4.5-10-10v-6.6c0-2.2,0.9-4.4,2.5-5.9c1.6-1.6,3.7-2.5,5.9-2.5h5.7
		c2.2,0,4.4,0.9,5.9,2.5c1.6,1.6,2.5,3.7,2.5,5.9v6.6c0,2.7-1.1,5.2-2.9,7.1S53.9,650,51.2,650z"/>
</g>
<g>
	<path class="st2" d="M61.6,775H38.4c-2.5-0.1-4.9-1.3-6.4-3.3s-2.1-4.6-1.5-7.1l0.6-2.8c0.7-3.9,4-6.7,7.9-6.8h22
		c3.9,0.1,7.2,2.9,7.9,6.8l0.6,2.8c0.6,2.5,0,5.1-1.5,7.1S64.1,774.9,61.6,775z"/>
	<path class="st2" d="M51.2,750h-2.5c-5.5,0-10-4.5-10-10v-6.6c0-2.2,0.9-4.4,2.5-5.9c1.6-1.6,3.7-2.5,5.9-2.5h5.7
		c2.2,0,4.4,0.9,5.9,2.5c1.6,1.6,2.5,3.7,2.5,5.9v6.6c0,2.7-1.1,5.2-2.9,7.1S53.9,750,51.2,750z"/>
</g>
<rect y="800" class="st0" width="100" height="100"/>
<rect y="900" class="st0" width="100" height="100"/>
<g>
	<path class="st1" d="M51.3,429.1h-23c-1.8,0-3.3,1.5-3.3,3.3v23c0,1.8,1.5,3.3,3.3,3.3h16c-0.1-1.9,0.1-3.8,0.5-5.6
		c-0.1-0.3-0.2-0.6-0.2-1c0-1.5,1-2.8,2.4-3.2c2.1-1.8,4.7-2.9,7.4-3v-13.5C54.5,430.6,53.1,429.1,51.3,429.1 M31.6,455.4
		c-1.8,0-3.3-1.5-3.3-3.3s1.5-3.3,3.3-3.3c1.8,0,3.3,1.5,3.3,3.3S33.4,455.4,31.6,455.4z M31.6,438.9c-1.8,0-3.3-1.5-3.3-3.3
		s1.5-3.3,3.3-3.3c1.8,0,3.3,1.5,3.3,3.3C34.9,437.5,33.4,438.9,31.6,438.9z M48,438.9c-1.8,0-3.3-1.5-3.3-3.3s1.5-3.3,3.3-3.3
		s3.3,1.5,3.3,3.3C51.3,437.5,49.8,438.9,48,438.9z"/>
	<path class="st1" d="M61.4,465.2c-4,0-13.2-0.8-13.5-3.6c0,0.1,0,0.2,0,0.2v3.8c0,2.9,6.1,5.2,13.5,5.2c7.5,0,13.5-2.3,13.5-5.2
		v-3.8v-0.2C74.7,464.4,65,465.2,61.4,465.2"/>
	<path class="st1" d="M61.4,448.6c-7.5,0-13.5,2.3-13.5,5.2v3.3c0,2.9,6.1,5.2,13.5,5.2c7.5,0,13.5-2.3,13.5-5.2v-3.3
		C75,450.9,68.9,448.6,61.4,448.6z M61.2,456.6c-6.3,0-11.4-1.3-11.4-2.8c0-1.6,5.1-2.8,11.4-2.8s11.4,1.3,11.4,2.8
		C72.6,455.4,67.5,456.6,61.2,456.6z"/>
</g>
<g>
	<path class="st2" d="M51.3,529.1h-23c-1.8,0-3.3,1.5-3.3,3.3v23c0,1.8,1.5,3.3,3.3,3.3h16c-0.1-1.9,0.1-3.8,0.5-5.6
		c-0.1-0.3-0.2-0.6-0.2-1c0-1.5,1-2.8,2.4-3.2c2.1-1.8,4.7-2.9,7.4-3v-13.5C54.5,530.6,53.1,529.1,51.3,529.1 M31.6,555.4
		c-1.8,0-3.3-1.5-3.3-3.3s1.5-3.3,3.3-3.3c1.8,0,3.3,1.5,3.3,3.3S33.4,555.4,31.6,555.4z M31.6,538.9c-1.8,0-3.3-1.5-3.3-3.3
		s1.5-3.3,3.3-3.3c1.8,0,3.3,1.5,3.3,3.3C34.9,537.5,33.4,538.9,31.6,538.9z M48,538.9c-1.8,0-3.3-1.5-3.3-3.3s1.5-3.3,3.3-3.3
		s3.3,1.5,3.3,3.3C51.3,537.5,49.8,538.9,48,538.9z"/>
	<path class="st2" d="M61.4,565.2c-4,0-13.2-0.8-13.5-3.6c0,0.1,0,0.2,0,0.2v3.8c0,2.9,6.1,5.2,13.5,5.2c7.5,0,13.5-2.3,13.5-5.2
		v-3.8v-0.2C74.7,564.4,65,565.2,61.4,565.2"/>
	<path class="st2" d="M61.4,548.6c-7.5,0-13.5,2.3-13.5,5.2v3.3c0,2.9,6.1,5.2,13.5,5.2c7.5,0,13.5-2.3,13.5-5.2v-3.3
		C75,550.9,68.9,548.6,61.4,548.6z M61.2,556.6c-6.3,0-11.4-1.3-11.4-2.8c0-1.6,5.1-2.8,11.4-2.8s11.4,1.3,11.4,2.8
		C72.6,555.4,67.5,556.6,61.2,556.6z"/>
</g>
<g>
	<path class="st1" d="M66.2,250.5c2.8-1,5.7-1.5,8.7-1.5C74.5,236,64,225.5,51,225c0,0.1,0,0.2,0,0.3c0,2.9-0.5,5.7-1.5,8.4
		l-5.9-2.1c0.7-2,1.1-4,1.1-6.1c-9.4,2-16.8,9.3-19,18.7c2.4,0,4.9-0.4,7.1-1.3l2.3,5.8c-3,1.2-6.1,1.7-9.3,1.7c-0.2,0-0.5,0-0.7,0
		c0.2,13.4,11.1,24.3,24.5,24.5c-0.1-3.4,0.5-6.9,1.7-10.1l5.8,2.3c-0.9,2.2-1.3,4.7-1.3,7.1v0.1c9.4-2.2,16.6-9.6,18.7-19.1
		c-2.1,0-4.1,0.4-6,1.1L66.2,250.5L66.2,250.5z M43.4,243.4c-1.1,1.1-2.2,2-3.5,2.9l-3.5-5.2c0.9-0.6,1.8-1.4,2.6-2.1
		c1.1-1.1,2.1-2.3,2.9-3.7l5.3,3.3C46.1,240.3,44.8,241.9,43.4,243.4z M61.1,261c-0.8,0.8-1.5,1.7-2.1,2.6l-5.2-3.5
		c0.9-1.3,1.8-2.4,2.9-3.5c1.5-1.5,3.1-2.7,4.8-3.8l3.3,5.3C63.4,258.9,62.2,259.9,61.1,261"/>
</g>
<g>
	<path class="st2" d="M66.2,350.5c2.8-1,5.7-1.5,8.7-1.5C74.5,336,64,325.5,51,325c0,0.1,0,0.2,0,0.3c0,2.9-0.5,5.7-1.5,8.4
		l-5.9-2.1c0.7-2,1.1-4,1.1-6.1c-9.4,2-16.8,9.3-19,18.7c2.4,0,4.9-0.4,7.1-1.3l2.3,5.8c-3,1.2-6.1,1.7-9.3,1.7c-0.2,0-0.5,0-0.7,0
		c0.2,13.4,11.1,24.3,24.5,24.5c-0.1-3.4,0.5-6.9,1.7-10.1l5.8,2.3c-0.9,2.2-1.3,4.7-1.3,7.1v0.1c9.4-2.2,16.6-9.6,18.7-19.1
		c-2.1,0-4.1,0.4-6,1.1L66.2,350.5L66.2,350.5z M43.4,343.4c-1.1,1.1-2.2,2-3.5,2.9l-3.5-5.2c0.9-0.6,1.8-1.4,2.6-2.1
		c1.1-1.1,2.1-2.3,2.9-3.7l5.3,3.3C46.1,340.3,44.8,341.9,43.4,343.4z M61.1,361c-0.8,0.8-1.5,1.7-2.1,2.6l-5.2-3.5
		c0.9-1.3,1.8-2.4,2.9-3.5c1.5-1.5,3.1-2.7,4.8-3.8l3.3,5.3C63.4,358.9,62.2,359.9,61.1,361"/>
</g>
<path class="st3" d="M56.8,27.3l13.9,10.3c2.7,1.9,4.3,5,4.3,8.3v18.6c-0.2,6-5.1,10.7-11.1,10.5H36.1c-6,0.1-10.9-4.6-11.1-10.5
	V45.9c0-3.3,1.6-6.4,4.3-8.3l13.9-10.3C47.2,24.3,52.8,24.3,56.8,27.3z M38.2,63.8h23.7c1.1,0,2-0.9,2-2s-0.9-2-2-2H38.2
	c-1.1,0-2,0.9-2,2C36.2,63,37.1,63.8,38.2,63.8z"/>
<path class="st4" d="M56.8,127.3l13.9,10.3c2.7,1.9,4.3,5,4.3,8.3v18.6c-0.2,6-5.1,10.7-11.1,10.5H36.1c-6,0.1-10.9-4.6-11.1-10.5
	v-18.6c0-3.3,1.6-6.4,4.3-8.3l13.9-10.3C47.2,124.3,52.8,124.3,56.8,127.3z M38.2,163.8h23.7c1.1,0,2-0.9,2-2s-0.9-2-2-2H38.2
	c-1.1,0-2,0.9-2,2C36.2,163,37.1,163.8,38.2,163.8z"/>
<rect y="1100" class="st0" width="100" height="100"/>
<g>
	<path class="st2" d="M49.7,1130.9c-0.9-1.9-2.4-3.5-4.3-4.6c-1.9-1-4-1.4-6.2-1.1c-1.3,0.2-2.4,0.8-3.2,1.8s-1.3,2.2-1.3,3.4v7.9
		h7.6c0.1-1.9,0.8-3.8,2.2-5.2C45.9,1131.8,47.8,1130.9,49.7,1130.9z"/>
	<path class="st2" d="M44.6,1138.3h10.7c0-1.4-0.6-2.7-1.6-3.7s-2.3-1.5-3.7-1.5s-2.7,0.5-3.7,1.5
		C45.3,1135.6,44.7,1136.9,44.6,1138.3z"/>
	<path class="st2" d="M57.7,1138.3h7.6v-7.9c0-1.3-0.5-2.5-1.3-3.4c-0.8-1-2-1.6-3.2-1.8c-2.1-0.3-4.3,0.1-6.2,1.1s-3.4,2.6-4.3,4.6
		c1.9,0.1,3.8,0.9,5.1,2.3S57.6,1136.4,57.7,1138.3z"/>
	<path class="st2" d="M30.3,1171.5c0,0.4,0.1,0.9,0.3,1.3c0.2,0.4,0.4,0.8,0.7,1.1c0.3,0.3,0.7,0.6,1.1,0.7c0.4,0.2,0.9,0.3,1.3,0.3
		h8.7v-20.3H30.3V1171.5z"/>
	<path class="st2" d="M72.1,1140.6H27.9c-0.7,0-1.4,0.3-1.9,0.8s-0.8,1.2-0.8,1.9v6.6c0,0.7,0.3,1.3,0.7,1.7
		c0.5,0.5,1.1,0.7,1.7,0.7h44.6c0.7,0,1.3-0.3,1.7-0.7c0.5-0.5,0.7-1.1,0.7-1.7v-6.6c0-0.7-0.3-1.4-0.8-1.9
		C73.5,1140.9,72.8,1140.6,72.1,1140.6L72.1,1140.6z"/>
	<path class="st2" d="M58.5,1174.9h7.9c0.9,0,1.8-0.4,2.4-1s1-1.5,1-2.4v-16.9H58.5V1174.9z"/>
	<path class="st2" d="M56.2,1154.6H44.6v20.3h11.6C56.2,1174.9,56.2,1154.6,56.2,1154.6z"/>
</g>
<rect y="1000" class="st0" width="100" height="100"/>
<g>
	<path class="st1" d="M49.7,1030.9c-0.9-1.9-2.4-3.5-4.3-4.6c-1.9-1-4-1.4-6.2-1.1c-1.3,0.2-2.4,0.8-3.2,1.8s-1.3,2.2-1.3,3.4v7.9
		h7.6c0.1-1.9,0.8-3.8,2.2-5.2C45.9,1031.8,47.8,1030.9,49.7,1030.9z"/>
	<path class="st1" d="M44.6,1038.3h10.7c0-1.4-0.6-2.7-1.6-3.7s-2.3-1.5-3.7-1.5s-2.7,0.5-3.7,1.5
		C45.3,1035.6,44.7,1036.9,44.6,1038.3z"/>
	<path class="st1" d="M57.7,1038.3h7.6v-7.9c0-1.3-0.5-2.5-1.3-3.4c-0.8-1-2-1.6-3.2-1.8c-2.1-0.3-4.3,0.1-6.2,1.1s-3.4,2.6-4.3,4.6
		c1.9,0.1,3.8,0.9,5.1,2.3S57.6,1036.4,57.7,1038.3z"/>
	<path class="st1" d="M30.3,1071.5c0,0.4,0.1,0.9,0.3,1.3c0.2,0.4,0.4,0.8,0.7,1.1c0.3,0.3,0.7,0.6,1.1,0.7c0.4,0.2,0.9,0.3,1.3,0.3
		h8.7v-20.3H30.3V1071.5z"/>
	<path class="st1" d="M72.1,1040.6H27.9c-0.7,0-1.4,0.3-1.9,0.8s-0.8,1.2-0.8,1.9v6.6c0,0.7,0.3,1.3,0.7,1.7
		c0.5,0.5,1.1,0.7,1.7,0.7h44.6c0.7,0,1.3-0.3,1.7-0.7c0.5-0.5,0.7-1.1,0.7-1.7v-6.6c0-0.7-0.3-1.4-0.8-1.9
		C73.5,1040.9,72.8,1040.6,72.1,1040.6L72.1,1040.6z"/>
	<path class="st1" d="M58.5,1074.9h7.9c0.9,0,1.8-0.4,2.4-1s1-1.5,1-2.4v-16.9H58.5V1074.9z"/>
	<path class="st1" d="M56.2,1054.6H44.6v20.3h11.6C56.2,1074.9,56.2,1054.6,56.2,1054.6z"/>
</g>
<rect y="1200" class="st0" width="100" height="100"/>
<rect y="1300" class="st0" width="100" height="100"/>
<rect y="1400" class="st0" width="100" height="100"/>
<rect y="1500" class="st0" width="100" height="100"/>
<path id="bxs-detail" class="st1" d="M66.5,1431.5h-33c-2.3,0-4.1,1.8-4.1,4.1v28.8c0,2.3,1.8,4.1,4.1,4.1h32.9
	c2.3,0,4.1-1.8,4.1-4.1v-28.8C70.6,1433.3,68.7,1431.5,66.5,1431.5z M47.9,1460.3H35.6v-4.1h12.3
	C47.9,1456.2,47.9,1460.3,47.9,1460.3z M64.4,1452.1H35.6v-4.1h28.8C64.4,1448,64.4,1452.1,64.4,1452.1z M64.4,1443.8H35.6v-4.1
	h28.8C64.4,1439.7,64.4,1443.8,64.4,1443.8z"/>
<path id="bxs-detail_00000059999023263710367940000001689790842871762056_" class="st2" d="M66.5,1531.5h-33c-2.3,0-4.1,1.8-4.1,4.1
	v28.8c0,2.3,1.8,4.1,4.1,4.1h32.9c2.3,0,4.1-1.8,4.1-4.1v-28.8C70.6,1533.3,68.7,1531.5,66.5,1531.5z M47.9,1560.3H35.6v-4.1h12.3
	C47.9,1556.2,47.9,1560.3,47.9,1560.3z M64.4,1552.1H35.6v-4.1h28.8C64.4,1548,64.4,1552.1,64.4,1552.1z M64.4,1543.8H35.6v-4.1
	h28.8C64.4,1539.7,64.4,1543.8,64.4,1543.8z"/>
<g>
	<g>
		<path class="st1" d="M58.8,1272.8c-0.8,0.3-1.6,0.4-2.4,0.4H33.3c-2.5-0.1-4.9-1.3-6.4-3.3s-2.1-4.6-1.5-7.1l0.6-2.8
			c0.7-3.9,4-6.7,7.9-6.8h22c1,0,2,0.2,2.9,0.6l-9.7,9.7c-0.8,0.8-0.2,2.2,0.9,2.2h5C55.8,1268.3,57.1,1270.8,58.8,1272.8z"/>
		<path class="st1" d="M46.1,1248.2h-2.5c-5.5,0-10-4.5-10-10v-6.6c0-2.2,0.9-4.4,2.5-5.9c1.6-1.6,3.7-2.5,5.9-2.5h5.7
			c2.2,0,4.4,0.9,5.9,2.5c1.6,1.6,2.5,3.7,2.5,5.9v6.6c0,2.7-1.1,5.2-2.9,7.1C51.4,1247.2,48.8,1248.2,46.1,1248.2z"/>
	</g>
	<path class="st1" d="M67.3,1270.7c-1.2-2.2-1.4-4.8-0.7-7h4.9l-9.9-9.9l-9.9,9.9h4.8c0.9,4.4,3.5,8.3,7.1,10.7
		c3.5,2.3,7.7,2.9,11.2,2C71.4,1275.5,68.7,1273.3,67.3,1270.7z"/>
</g>
<g>
	<g>
		<path class="st2" d="M58.8,1372.8c-0.8,0.3-1.6,0.4-2.4,0.4H33.3c-2.5-0.1-4.9-1.3-6.4-3.3s-2.1-4.6-1.5-7.1l0.6-2.8
			c0.7-3.9,4-6.7,7.9-6.8h22c1,0,2,0.2,2.9,0.6l-9.7,9.7c-0.8,0.8-0.2,2.2,0.9,2.2h5C55.8,1368.3,57.1,1370.8,58.8,1372.8z"/>
		<path class="st2" d="M46.1,1348.2h-2.5c-5.5,0-10-4.5-10-10v-6.6c0-2.2,0.9-4.4,2.5-5.9c1.6-1.6,3.7-2.5,5.9-2.5h5.7
			c2.2,0,4.4,0.9,5.9,2.5c1.6,1.6,2.5,3.7,2.5,5.9v6.6c0,2.7-1.1,5.2-2.9,7.1C51.4,1347.2,48.8,1348.2,46.1,1348.2z"/>
	</g>
	<path class="st2" d="M67.3,1370.7c-1.2-2.2-1.4-4.8-0.7-7h4.9l-9.9-9.9l-9.9,9.9h4.8c0.9,4.4,3.5,8.3,7.1,10.7
		c3.5,2.3,7.7,2.9,11.2,2C71.4,1375.5,68.7,1373.3,67.3,1370.7z"/>
</g>
<g>
	<path class="st1" d="M57.8,842.9c0.8,1.4,1.2,2.9,1.2,4.5c0,2.4-0.9,4.7-2.6,6.4c-1.7,1.7-4,2.7-6.4,2.6c-2.4,0-4.7-0.9-6.4-2.6
		c-1.7-1.7-2.7-4-2.6-6.4c0-1.6,0.4-3.2,1.2-4.5c-3.1,1.6-5.8,4.1-7.7,7.1c1.7,2.7,4,4.9,6.7,6.6c5.4,3.3,12.1,3.3,17.5,0
		c2.7-1.6,5-3.9,6.7-6.6C63.6,847,60.9,844.5,57.8,842.9z"/>
	<path class="st1" d="M50,825c-13.8,0-25,11.2-25,25s11.2,25,25,25s25-11.2,25-25S63.8,825,50,825z M67.6,851.4
		c-1.9,3.1-4.5,5.6-7.6,7.4c-6.2,3.7-13.9,3.7-20.1,0c-3.1-1.8-5.7-4.3-7.6-7.4c-0.5-0.8-0.5-1.9,0-2.8c1.9-3.1,4.5-5.6,7.6-7.4
		c6.2-3.7,13.9-3.7,20.1,0c3.1,1.8,5.7,4.3,7.6,7.4c0.3,0.4,0.4,0.9,0.4,1.4C68,850.5,67.9,851,67.6,851.4z"/>
	<path class="st1" d="M44.9,848.4c0.5,0,1-0.4,1-1c0-2.3,1.9-4.2,4.2-4.2c0.5,0,1-0.4,1-1l0,0c0-0.5-0.4-1-1-1l0,0
		c-1.6,0-3.2,0.6-4.3,1.8c-1.2,1.1-1.8,2.7-1.8,4.3C43.9,848,44.3,848.4,44.9,848.4z"/>
</g>
<g>
	<path class="st2" d="M57.8,942.9c0.8,1.4,1.2,2.9,1.2,4.5c0,2.4-0.9,4.7-2.6,6.4c-1.7,1.7-4,2.7-6.4,2.6c-2.4,0-4.7-0.9-6.4-2.6
		c-1.7-1.7-2.7-4-2.6-6.4c0-1.6,0.4-3.2,1.2-4.5c-3.1,1.6-5.8,4.1-7.7,7.1c1.7,2.7,4,4.9,6.7,6.6c5.4,3.3,12.1,3.3,17.5,0
		c2.7-1.6,5-3.9,6.7-6.6C63.6,947,60.9,944.5,57.8,942.9z"/>
	<path class="st2" d="M44.9,948.4c0.5,0,1-0.4,1-1c0-2.3,1.9-4.2,4.2-4.2c0.5,0,1-0.4,1-1l0,0c0-0.5-0.4-1-1-1l0,0
		c-1.6,0-3.2,0.6-4.3,1.8c-1.2,1.1-1.8,2.7-1.8,4.3C43.9,948,44.3,948.4,44.9,948.4z"/>
	<path class="st2" d="M50,925c-13.8,0-25,11.2-25,25s11.2,25,25,25s25-11.2,25-25S63.8,925,50,925z M67.6,951.4
		c-1.9,3.1-4.5,5.6-7.6,7.4c-6.2,3.7-13.9,3.7-20.1,0c-3.1-1.8-5.7-4.3-7.6-7.4c-0.5-0.8-0.5-1.9,0-2.8c1.9-3.1,4.5-5.6,7.6-7.4
		c6.2-3.7,13.9-3.7,20.1,0c3.1,1.8,5.7,4.3,7.6,7.4c0.3,0.4,0.4,0.9,0.4,1.4C68,950.5,67.9,951,67.6,951.4z"/>
</g>
</svg>
