<svg width="32" height="32" viewBox="0 0 32 32" fill="none" xmlns="http://www.w3.org/2000/svg">
<path d="M5.60986 14.5615H14.4885V5.6828H5.60986V14.5615ZM7.84648 7.91941H12.2519V12.3249H7.84648V7.91941Z" fill="#6F7072"/>
<path d="M25.7029 5.6828H16.8242V14.5615H25.7029V5.6828ZM23.4663 12.3249H19.0608V7.91941H23.4663V12.3249Z" fill="#6F7072"/>
<path d="M5.60986 25.6298H14.4885V16.7512H5.60986V25.6298ZM7.84648 18.9878H12.2519V23.3932H7.84648V18.9878Z" fill="#6F7072"/>
<path d="M19.066 16.7563H16.8293V18.993H19.066V16.7563Z" fill="#6F7072"/>
<path d="M25.7028 25.6299V21.2244V20.1087V18.9878H19.0607V21.2244V23.3985H16.8293V25.6299H19.0607V23.461H21.2974V21.2244H23.4662V25.6299H25.7028Z" fill="#6F7072"/>
<path d="M2.23661 2.23661H7.83597V0H0V7.83597H2.23661V2.23661Z" fill="#6F7072"/>
<path d="M23.4819 0V2.23661H29.0761V7.83597H31.3127V0H23.4819Z" fill="#6F7072"/>
<path d="M29.0761 29.076H23.4819V31.3126H31.3127V23.4819H29.0761V29.076Z" fill="#6F7072"/>
<path d="M2.23661 23.4819H0V31.3126H7.83597V29.076H2.23661V23.4819Z" fill="#6F7072"/>
</svg>
