<svg width="16" height="16" viewBox="0 0 16 16" fill="none" xmlns="http://www.w3.org/2000/svg">
<path d="M14.0027 7.9984V12.7993C14.0027 14.5677 12.5704 16 10.8021 16H4.40082C2.63248 16 1.2002 14.5677 1.2002 12.7993V7.9984C1.2002 7.55831 1.56027 7.19824 2.00035 7.19824H3.57666C4.01675 7.19824 4.37682 7.55831 4.37682 7.9984V10.5109C4.37682 11.103 4.70488 11.6471 5.22498 11.9272C5.45703 12.0552 5.71308 12.1192 5.97713 12.1192C6.28119 12.1192 6.58525 12.0312 6.8493 11.8552L7.60945 11.3591L8.31359 11.8311C8.80168 12.1592 9.4258 12.1992 9.9459 11.9192C10.474 11.6391 10.8021 11.103 10.8021 10.5029V7.9984C10.8021 7.55831 11.1621 7.19824 11.6022 7.19824H13.2025C13.6426 7.19824 14.0027 7.55831 14.0027 7.9984Z" fill="#3D3D3D"/>
<path d="M15.203 3.99765V4.79781C15.203 5.67798 14.7789 6.39812 13.6027 6.39812H1.60031C0.376074 6.39812 0 5.67798 0 4.79781V3.99765C0 3.11748 0.376074 2.39734 1.60031 2.39734H13.6027C14.7789 2.39734 15.203 3.11748 15.203 3.99765Z" fill="#3D3D3D"/>
<path d="M7.31233 2.39847H2.89548C2.62342 2.10241 2.63142 1.64632 2.91948 1.35827L4.0557 0.222043C4.35176 -0.0740145 4.83986 -0.0740145 5.13591 0.222043L7.31233 2.39847Z" fill="#3D3D3D"/>
<path d="M12.2997 2.39847H7.88281L10.0592 0.222043C10.3553 -0.0740145 10.8434 -0.0740145 11.1394 0.222043L12.2757 1.35827C12.5637 1.64632 12.5717 2.10241 12.2997 2.39847Z" fill="#3D3D3D"/>
<path d="M9.17908 7.19824C9.61916 7.19824 9.97923 7.55831 9.97923 7.9984V10.5029C9.97923 11.143 9.26709 11.5271 8.73899 11.167L8.01885 10.6869C7.7548 10.5109 7.41073 10.5109 7.13868 10.6869L6.38653 11.183C5.85843 11.5351 5.1543 11.151 5.1543 10.5189V7.9984C5.1543 7.55831 5.51437 7.19824 5.95445 7.19824H9.17908Z" fill="#3D3D3D"/>
</svg>
