<svg width="16" height="19" viewBox="0 0 16 19" fill="none" xmlns="http://www.w3.org/2000/svg">
<path d="M13.88 0V1.55H1.55V0H13.88ZM1.55 18.51V16.96H13.88V18.51H1.55ZM13.88 3.07C14.73 3.07 15.43 3.75 15.43 4.6V4.62V13.87C15.43 14.72 14.75 15.42 13.9 15.42H13.88H1.55C1.14 15.42 0.74 15.26 0.45 14.97C0.16 14.69 0 14.29 0 13.88V4.63C0 4.22 0.16 3.82 0.45 3.53C0.74 3.23 1.14 3.07 1.55 3.08H13.88V3.07ZM7.7 5.2C6.75 5.2 5.97 5.96 5.96 6.92C5.96 6.92 5.96 6.93 5.96 6.94C5.96 7.89 6.73 8.67 7.68 8.68C7.68 8.68 7.69 8.68 7.7 8.68C8.65 8.68 9.43 7.91 9.43 6.96C9.43 6.96 9.43 6.95 9.43 6.94C9.43 5.99 8.67 5.21 7.72 5.2C7.72 5.2 7.71 5.2 7.7 5.2ZM11.57 13.12V11.97C11.57 11.39 11.13 10.92 10.25 10.56C9.45 10.22 8.59 10.03 7.72 10.02C6.85 10.03 5.99 10.22 5.19 10.56C4.31 10.92 3.87 11.39 3.87 11.97V13.13H11.57V13.12Z" fill="#3D3D3D"/>
</svg>
