<svg width="16" height="16" viewBox="0 0 16 16" fill="none" xmlns="http://www.w3.org/2000/svg">
<path d="M9.95554 0C10.3928 0.0671658 10.6885 0.351457 10.9774 0.653703C11.2634 0.953289 11.5627 1.24057 11.87 1.54714C11.437 1.98704 11.282 2.51706 11.3579 3.1129C11.4121 3.53984 11.6229 3.88631 11.9305 4.18722C12.4463 4.69163 13.5975 4.93635 14.4777 4.11607C14.7557 4.40468 15.0347 4.69529 15.3147 4.98457C15.4032 5.07601 15.4946 5.16412 15.5848 5.25423C16.1378 5.80618 16.1401 6.53337 15.5848 7.08932C14.0108 8.66672 12.4353 10.2421 10.8604 11.8185C9.61369 13.0661 8.36734 14.3143 7.12032 15.5615C6.53272 16.1491 5.82973 16.1461 5.23915 15.5565C4.87169 15.1898 4.50324 14.824 4.13578 14.4583C4.98176 13.5445 4.65986 12.3419 4.07593 11.8095C3.48101 11.2672 2.35171 11.1006 1.5483 11.8564C1.5064 11.8172 1.46184 11.7786 1.4206 11.7371C1.13229 11.4468 0.852296 11.1479 0.554009 10.8679C0.281993 10.6122 0.0711633 10.3282 0 9.95484V9.6895C0.0641799 9.3939 0.180236 9.13056 0.401374 8.90978C3.16377 6.15631 5.92417 3.40085 8.68059 0.641733C8.97222 0.349794 9.25987 0.0668333 9.68984 0H9.95521H9.95554ZM13.2437 6.79206C13.255 6.58591 13.1489 6.43728 13.0116 6.29995C11.9162 5.20602 10.8218 4.11108 9.72709 3.01648C9.37526 2.66469 9.0497 2.66469 8.69788 3.01614C6.80141 4.91208 4.90528 6.80802 3.00914 8.70429C2.65299 9.0604 2.65266 9.36098 3.00781 9.7161C4.09455 10.8031 5.18162 11.8897 6.26868 12.9766C6.62051 13.3284 6.9474 13.3288 7.29822 12.978C8.48273 11.7936 9.66756 10.6089 10.8521 9.42449C11.5713 8.70529 12.2906 7.98575 13.0109 7.26721C13.1439 7.13454 13.25 6.99156 13.2437 6.79239V6.79206Z" fill="#3D3D3D"/>
<path d="M12.1736 6.80202C10.3879 8.58723 8.58554 10.3894 6.79149 12.1829C5.8002 11.1914 4.80424 10.1952 3.81494 9.20569C5.60633 7.41449 7.40802 5.61298 9.19575 3.82544C10.1807 4.80998 11.1757 5.80417 12.1736 6.80168V6.80202Z" fill="#3D3D3D"/>
</svg>
