<svg width="14" height="16" viewBox="0 0 14 16" fill="none" xmlns="http://www.w3.org/2000/svg">
<path d="M13.4373 11.0468C13.378 10.9754 13.3198 10.9039 13.2627 10.835C12.4769 9.88465 12.0016 9.31108 12.0016 6.62072C12.0016 5.22786 11.6684 4.085 11.0116 3.22786C10.5273 2.59464 9.87266 2.11429 9.0098 1.75929C8.9987 1.75311 8.98878 1.74501 8.98052 1.73536C8.67016 0.696072 7.82088 0 6.86302 0C5.90516 0 5.05623 0.696072 4.74587 1.73429C4.73759 1.74358 4.72781 1.75143 4.71695 1.7575C2.70337 2.58643 1.7248 4.17679 1.7248 6.61965C1.7248 9.31108 1.25016 9.88465 0.46373 10.8339C0.406587 10.9029 0.348373 10.9729 0.289087 11.0457C0.135944 11.2304 0.038916 11.4551 0.00948469 11.6932C-0.0199466 11.9313 0.0194512 12.1729 0.123016 12.3893C0.343373 12.8536 0.813016 13.1418 1.34909 13.1418H12.3809C12.9144 13.1418 13.3809 12.8539 13.6019 12.3918C13.706 12.1753 13.7457 11.9336 13.7166 11.6952C13.6874 11.4568 13.5905 11.2318 13.4373 11.0468Z" fill="#3D3D3D"/>
<path d="M6.86299 15.9999C7.37907 15.9995 7.88542 15.8594 8.32833 15.5945C8.77124 15.3296 9.1342 14.9498 9.3787 14.4953C9.39022 14.4735 9.39591 14.4491 9.39522 14.4245C9.39452 14.3999 9.38747 14.3758 9.37475 14.3547C9.36202 14.3336 9.34406 14.3162 9.3226 14.3041C9.30114 14.292 9.27691 14.2856 9.25227 14.2856H4.47441C4.44974 14.2856 4.42547 14.2919 4.40396 14.3039C4.38245 14.316 4.36444 14.3335 4.35167 14.3546C4.3389 14.3757 4.33182 14.3997 4.33111 14.4244C4.33041 14.4491 4.33609 14.4735 4.34763 14.4953C4.5921 14.9497 4.955 15.3295 5.39784 15.5944C5.84069 15.8593 6.34696 15.9994 6.86299 15.9999Z" fill="#3D3D3D"/>
</svg>
