<svg width="17" height="17" viewBox="0 0 17 17" fill="none" xmlns="http://www.w3.org/2000/svg">
<path d="M16.3 1.02L12.22 5.08L16.3 9.16C16.3 9.43 16.2 9.7 16 9.89C15.81 10.08 15.55 10.19 15.28 10.18H6.11C5.56 10.18 5.1 9.74 5.09 9.19C5.09 9.19 5.09 9.17 5.09 9.16V1C5.09 0.73 5.19 0.48 5.38 0.29C5.58 0.1 5.84 0 6.11 0H15.28C15.55 0 15.81 0.1 16 0.29C16.19 0.47 16.3 0.73 16.3 1V1.02ZM6.11 15.28C6.11 15.55 6.01 15.81 5.82 16C5.63 16.19 5.37 16.3 5.1 16.29H1.02C0.75 16.29 0.49 16.19 0.29 16C0.1 15.81 0 15.55 0 15.28C0 15.01 0.1 14.75 0.29 14.56C0.48 14.36 0.74 14.25 1.02 14.26H2.04V1C2.04 0.73 2.15 0.48 2.34 0.29C2.53 0.1 2.79 0 3.07 0C3.34 0 3.6 0.1 3.79 0.29C3.98 0.47 4.09 0.73 4.09 1V14.25H5.11C5.38 14.25 5.65 14.35 5.83 14.55C6.02 14.74 6.13 15 6.12 15.28H6.11Z" fill="#3D3D3D"/>
</svg>
