<svg width="16" height="20" viewBox="0 0 16 20" fill="none" xmlns="http://www.w3.org/2000/svg">
<path d="M12.5468 20H3.26683C2.25601 19.9633 1.3144 19.477 0.699179 18.6742C0.0839581 17.8713 -0.140601 16.8356 0.0868326 15.85L0.326833 14.71C0.602868 13.1668 1.92945 12.0327 3.49683 12H12.3168C13.8842 12.0327 15.2108 13.1668 15.4868 14.71L15.7268 15.85C15.9543 16.8356 15.7297 17.8713 15.1145 18.6742C14.4993 19.477 13.5577 19.9633 12.5468 20Z" fill="#3D3D3D"/>
<path d="M8.40683 10H7.40683C5.19769 10 3.40683 8.20915 3.40683 6.00001V3.36001C3.40417 2.46807 3.75731 1.61189 4.38801 0.981192C5.01871 0.350491 5.87489 -0.00265152 6.76683 1.49917e-05H9.04683C9.93878 -0.00265152 10.795 0.350491 11.4257 0.981192C12.0564 1.61189 12.4095 2.46807 12.4068 3.36001V6.00001C12.4068 7.06088 11.9854 8.0783 11.2353 8.82844C10.4851 9.57859 9.4677 10 8.40683 10Z" fill="#3D3D3D"/>
</svg>
