<svg width="18" height="17" viewBox="0 0 18 17" fill="none" xmlns="http://www.w3.org/2000/svg">
<path d="M13.1621 8.90875H15.1539V13.6784H13.1621V8.90875Z" fill="#3D3D3D"/>
<path d="M9.39014 8.90875H11.3819V13.6784H9.39014V8.90875Z" fill="#3D3D3D"/>
<path d="M5.61768 8.90875H7.60947V13.6784H5.61768V8.90875Z" fill="#3D3D3D"/>
<path d="M1.84521 8.90875H3.83701V13.6784H1.84521V8.90875Z" fill="#3D3D3D"/>
<path d="M15.8191 7.41577V6.91711H1.18066V7.41577C1.18066 7.69186 1.40323 7.91442 1.67932 7.91442H15.3204C15.5965 7.91442 15.8191 7.69186 15.8191 7.41577Z" fill="#3D3D3D"/>
<path d="M16.5006 14.6757H0.498653C0.222563 14.6757 0 14.8983 0 15.1744V16.5013C0 16.7774 0.222563 16.9999 0.498653 16.9999H16.5034C16.7795 16.9999 17.0021 16.7774 17.0021 16.5013V15.1744C17.0021 14.8983 16.7795 14.6757 16.5034 14.6757H16.5006Z" fill="#3D3D3D"/>
<path d="M0.496132 5.92256H16.5009C16.7235 5.92256 16.9207 5.77324 16.9798 5.55913C17.0418 5.34502 16.9517 5.11683 16.7629 4.9985L8.76194 0.0739527C8.60135 -0.0246509 8.40133 -0.0246509 8.24075 0.0739527L0.239763 4.9985C0.0510074 5.11401 -0.0391446 5.34502 0.0228348 5.55913C0.0848142 5.77324 0.279205 5.92256 0.501767 5.92256H0.496132ZM8.15904 2.93064H8.83518C9.11127 2.93064 9.33384 3.1532 9.33384 3.42929C9.33384 3.70538 9.11127 3.92795 8.83518 3.92795H8.15904C7.88295 3.92795 7.66039 3.70538 7.66039 3.42929C7.66039 3.1532 7.88295 2.93064 8.15904 2.93064Z" fill="#3D3D3D"/>
</svg>
