<svg width="17" height="19" viewBox="0 0 17 19" fill="none" xmlns="http://www.w3.org/2000/svg">
<path fill-rule="evenodd" clip-rule="evenodd" d="M4.82778 0.64C5.94778 0.3 7.10778 0.09 8.27778 0C9.44778 0.09 10.6078 0.31 11.7278 0.64C12.8678 0.95 13.9978 1.28 15.1278 1.64C15.7878 1.85 16.2578 2.41 16.3578 3.09C17.0278 7.16 15.9778 11.32 13.4578 14.58C12.6178 15.66 11.6178 16.61 10.4878 17.4C10.0978 17.67 9.68778 17.91 9.24778 18.12C8.94778 18.28 8.60778 18.37 8.26778 18.4C7.92778 18.37 7.59778 18.28 7.28778 18.12C6.85778 17.92 6.44778 17.68 6.04778 17.4C4.92778 16.61 3.92778 15.66 3.07778 14.58C0.577783 11.33 -0.472217 7.17 0.197783 3.1C0.297783 2.42 0.767783 1.85 1.42778 1.65C2.55778 1.29 3.68778 0.96 4.82778 0.65V0.64Z" fill="#3D3D3D"/>
</svg>
