<svg width="24" height="24" viewBox="0 0 24 24" fill="none" xmlns="http://www.w3.org/2000/svg">
<path d="M23.41 8.29381C21.7648 3.22268 17.0615 0 12.0048 0C10.7758 0 9.52734 0.188716 8.29343 0.590341C1.99323 2.63718 -1.45687 9.40675 0.589964 15.7069C2.23518 20.7781 6.93855 24.0008 11.9952 24.0008C13.2242 24.0008 14.4727 23.812 15.7066 23.4104C22.0068 21.3636 25.4569 14.594 23.41 8.29381ZM19.8051 17.6667L17.2792 17.9764L15.1646 15.0295L16.3453 11.3907L19.7857 10.3213L21.668 12.0826C21.6584 13.5682 21.31 15.0392 20.618 16.3989C20.3906 16.8489 20.1003 17.2602 19.8051 17.6667ZM19.8051 6.276L19.3018 8.84544L15.8808 9.90999L12.7742 7.65992V4.08884L15.0678 2.82106C16.9647 3.45011 18.6196 4.65982 19.8051 6.276ZM8.94668 2.8259L11.2258 4.08884V7.65992L8.11923 9.90999L4.703 8.84544L4.21427 6.30504C5.39012 4.68886 7.01597 3.46946 8.94668 2.8259ZM6.72564 17.9764L4.15621 17.6618C3.45941 16.6892 2.35131 14.7779 2.32712 12.0826L4.21427 10.3213L7.6547 11.3955L8.83055 14.9908L6.72564 17.9764ZM9.05797 21.2184L7.97407 18.8909L10.0838 15.9053H13.8872L16.0308 18.8909L14.9469 21.2184C14.6469 21.3055 12.1597 22.2055 9.05797 21.2184Z" fill="white"/>
</svg>
