<svg width="25" height="25" viewBox="0 0 25 25" fill="none" xmlns="http://www.w3.org/2000/svg">
<path d="M11.6398 24.75C11.7233 24.3459 11.7809 23.9368 11.8123 23.5253C11.831 23.2784 11.8407 23.0266 11.8407 22.7753C11.8407 17.4182 7.48316 13.0618 2.12709 13.0618C1.46421 13.0621 0.803103 13.1301 0.154053 13.2648C0.282895 16.2696 1.53437 19.1167 3.66108 21.2433C5.78779 23.3699 8.63496 24.6213 11.6398 24.75Z" fill="white"/>
<path d="M13.6878 11.2163C12.5694 10.1034 11.6827 8.7797 11.0792 7.32185C10.4757 5.86399 10.1673 4.30091 10.172 2.72308C10.1719 2.10577 10.2188 1.48934 10.3123 0.87915C7.79348 1.2713 5.4645 2.45395 3.66177 4.2563C1.85904 6.05864 0.675886 8.38737 0.283203 10.9061C0.89345 10.8133 1.50987 10.7671 2.12713 10.7679C3.70511 10.7636 5.26828 11.0723 6.72615 11.6761C8.18401 12.28 9.50762 13.1671 10.6203 14.2859C11.7386 15.3986 12.6251 16.7219 13.2286 18.1794C13.8321 19.6369 14.1406 21.1995 14.1362 22.777C14.1362 23.0845 14.1245 23.3952 14.1014 23.7C14.0784 24.0049 14.042 24.3167 13.9943 24.6215C16.5134 24.2295 18.8428 23.0469 20.6458 21.2444C22.4489 19.442 23.6322 17.113 24.025 14.594C23.4147 14.6868 22.7983 14.733 22.1811 14.7322C20.6032 14.7368 19.0402 14.4284 17.5823 13.8249C16.1244 13.2214 14.8007 12.3348 13.6878 11.2163Z" fill="white"/>
<path d="M22.1809 12.4366C22.8437 12.4368 23.5048 12.3693 24.1539 12.2352C24.0251 9.23047 22.7737 6.38343 20.6471 4.25683C18.5205 2.13023 15.6734 0.878833 12.6687 0.75C12.5346 1.39911 12.4671 2.06021 12.4673 2.72304C12.4673 8.07911 16.8248 12.4366 22.1809 12.4366Z" fill="white"/>
</svg>
