<svg width="30" height="30" viewBox="0 0 30 30" fill="none" xmlns="http://www.w3.org/2000/svg">
<path d="M8.23066 25.2308L8.6922 25.4615C10.6153 26.6154 12.7691 27.1538 14.923 27.1538C21.6922 27.1538 27.2307 21.6154 27.2307 14.8461C27.2307 11.6154 25.923 8.46153 23.6153 6.15384C21.3076 3.84614 18.2307 2.53845 14.923 2.53845C8.15374 2.53845 2.61527 8.07691 2.6922 14.9231C2.6922 17.2308 3.38451 19.4615 4.53835 21.3846L4.84604 21.8461L3.61527 26.3846L8.23066 25.2308Z" fill="#00E676"/>
<path d="M24.9231 4.92307C22.3078 2.23076 18.6924 0.769226 15.0001 0.769226C7.1539 0.769226 0.84621 7.15384 0.923133 14.9231C0.923133 17.3846 1.61544 19.7692 2.76929 21.9231L0.769287 29.2308L8.23083 27.3077C10.3077 28.4615 12.6154 29 14.9231 29C22.6924 29 29.0001 22.6154 29.0001 14.8461C29.0001 11.0769 27.5385 7.53846 24.9231 4.92307ZM15.0001 26.6154C12.9231 26.6154 10.8462 26.0769 9.07698 25L8.61544 24.7692L4.1539 25.9231L5.30775 21.5385L5.00006 21.0769C1.61544 15.6154 3.23083 8.38461 8.76929 5C14.3077 1.61538 21.4616 3.23076 24.8462 8.76923C28.2308 14.3077 26.6154 21.4615 21.077 24.8461C19.3078 26 17.1539 26.6154 15.0001 26.6154Z" fill="white"/>
<g clip-path="url(#clip0_1132_337)">
<mask id="mask0_1132_337" style="mask-type:luminance" maskUnits="userSpaceOnUse" x="11" y="8" width="10" height="13">
<path d="M21 8H11V21H21V8Z" fill="white"/>
</mask>
<g mask="url(#mask0_1132_337)">
<path fill-rule="evenodd" clip-rule="evenodd" d="M11.3042 20.9427C11.3973 21.0001 11.5883 21.0001 12.0266 20.9997C13.8864 20.998 15.4928 20.9923 16.6355 20.9923C21.9681 20.9923 21.8279 15.2325 19.3346 14.5139C19.6998 13.8502 21.3636 12.6032 20.3346 10.0258C19.3174 7.47723 14.941 8.05564 11.9481 8.05715C10.8406 8.05715 11.0063 8.89673 11.0119 10.2021C11.021 12.2696 11.0135 17.8659 11.0119 20.2851C11.0119 20.7755 11.1562 20.8508 11.3042 20.9426M13.6116 18.8318C14.1151 18.8318 15.3028 18.8318 16.3209 18.8301C17.4738 18.8283 18.5003 18.275 18.4747 17.0975C18.4559 15.9883 17.7366 15.6242 16.7383 15.5226C15.7874 15.532 14.6998 15.532 13.6116 15.532V18.8318ZM13.6116 13.3042C15.6174 13.2759 16.3912 13.3871 17.4863 13.1058C18.2382 12.6671 18.5675 11.0423 17.4906 10.4902C16.7424 10.1068 14.5316 10.2379 13.6116 10.2773V13.3042Z" fill="white"/>
</g>
</g>
<defs>
<clipPath id="clip0_1132_337">
<rect width="10" height="13" fill="white" transform="translate(11 8)"/>
</clipPath>
</defs>
</svg>
