<?xml version="1.0" encoding="utf-8"?>
<!-- Generator: Adobe Illustrator 27.4.0, SVG Export Plug-In . SVG Version: 6.00 Build 0)  -->
<svg version="1.1" xmlns="http://www.w3.org/2000/svg" xmlns:xlink="http://www.w3.org/1999/xlink" x="0px" y="0px"
	 viewBox="0 0 45 45" style="enable-background:new 0 0 45 45;" xml:space="preserve">
<style type="text/css">
	.st0{display:none;}
	.st1{display:inline;}
	.st2{clip-path:url(#SVGID_00000098920660577115503490000009089558481010691458_);}
	.st3{fill:#FAA51A;}
	.st4{fill:#FFFFFF;}
	.st5{clip-path:url(#SVGID_00000018228751244342757420000004092900453558416302_);}
	.st6{clip-path:url(#SVGID_00000121268718725946461130000006686348704245408653_);}
	.st7{fill:#55AA46;}
	.st8{clip-path:url(#SVGID_00000065065717956077147730000018122383552254225048_);}
	.st9{fill:#E0E1E3;}
	.st10{clip-path:url(#SVGID_00000075140939900552251270000018227561398631165608_);}
	.st11{fill:#D33027;}
</style>
<g id="Layer_1" class="st0">
	<g class="st1">
		<defs>
			<rect id="SVGID_1_" width="45" height="45"/>
		</defs>
		<clipPath id="SVGID_00000181770177749974993120000014752957371538813064_">
			<use xlink:href="#SVGID_1_"  style="overflow:visible;"/>
		</clipPath>
		<g id="Group_3312" style="clip-path:url(#SVGID_00000181770177749974993120000014752957371538813064_);">
			<path id="Path_10870" class="st3" d="M41,4c3.6,3.3,3.8,10.9,4,18.5c-0.1,7.6-0.4,15.2-4,18.5c-3.3,3.6-10.9,3.8-18.5,4
				C14.9,44.9,7.3,44.6,4,41c-3.6-3.3-3.8-10.9-4-18.5C0.1,14.9,0.4,7.3,4,4c3.3-3.6,10.9-3.8,18.5-4C30.1,0.1,37.7,0.4,41,4"/>
			<path id="Path_10871" class="st4" d="M38.4,22.5c0,8.8-7.1,15.9-15.9,15.9S6.6,31.3,6.6,22.5c0-8.8,7.1-15.9,15.9-15.9l0,0
				C31.3,6.6,38.4,13.7,38.4,22.5"/>
			<path id="Path_10872" class="st3" d="M22.5,30.1c-3.6,0-6.5-2.9-6.5-6.5c0-1.7,0.7-3.4,1.9-4.6c0.3-0.3,0.8-0.3,1.1,0
				s0.3,0.8,0,1.1c-1.9,1.9-1.9,5,0,7c1.9,1.9,5,1.9,7,0c1.9-1.9,1.9-5,0-7c0,0,0,0,0,0c-0.3-0.3-0.3-0.8,0-1.1s0.8-0.3,1.1,0
				c2.5,2.5,2.6,6.7,0,9.2C25.9,29.4,24.2,30.1,22.5,30.1"/>
			<path id="Path_10873" class="st3" d="M22.5,23.6c-0.4,0-0.8-0.4-0.8-0.8l0,0v-7.2c0-0.4,0.4-0.8,0.8-0.8c0.4,0,0.8,0.4,0.8,0.8
				v7.2C23.3,23.3,22.9,23.6,22.5,23.6L22.5,23.6"/>
		</g>
	</g>
</g>
<g id="Layer_2" class="st0">
	<g class="st1">
		<defs>
			<rect id="SVGID_00000062892287335601668690000003851427660246852992_" width="45" height="45"/>
		</defs>
		<clipPath id="SVGID_00000077290581786930801190000013329444023700938890_">
			<use xlink:href="#SVGID_00000062892287335601668690000003851427660246852992_"  style="overflow:visible;"/>
		</clipPath>
		<g id="Group_3310" style="clip-path:url(#SVGID_00000077290581786930801190000013329444023700938890_);">
			<path id="Path_10867" class="st3" d="M41,4c3.6,3.3,3.8,10.9,4,18.5c-0.1,7.6-0.4,15.2-4,18.5c-3.3,3.6-10.9,3.8-18.5,4
				C14.9,44.9,7.3,44.6,4,41c-3.6-3.3-3.8-10.9-4-18.5C0.1,14.9,0.4,7.3,4,4c3.3-3.6,10.9-3.8,18.5-4C30.1,0.1,37.7,0.4,41,4"/>
			<path id="Path_10868" class="st4" d="M38.4,22.5c0,8.8-7.1,15.9-15.9,15.9S6.6,31.3,6.6,22.5c0-8.8,7.1-15.9,15.9-15.9l0,0
				C31.3,6.6,38.4,13.7,38.4,22.5"/>
			<path id="Path_10869" class="st3" d="M21.3,28.4c0-0.7,0.5-1.3,1.2-1.3c0,0,0.1,0,0.1,0c0.7,0,1.3,0.7,1.2,1.4
				c0,0.7-0.6,1.2-1.2,1.2C21.8,29.7,21.3,29.2,21.3,28.4C21.3,28.5,21.3,28.4,21.3,28.4 M21.8,25.4l-0.3-10.1h2l-0.3,10.1H21.8z"/>
		</g>
	</g>
</g>
<g id="Layer_3" class="st0">
	<g class="st1">
		<defs>
			<rect id="SVGID_00000014597422463661155420000006106000687180609700_" x="-0.5" width="45" height="45"/>
		</defs>
		<clipPath id="SVGID_00000168104681557065886240000017365645750934560186_">
			<use xlink:href="#SVGID_00000014597422463661155420000006106000687180609700_"  style="overflow:visible;"/>
		</clipPath>
		<g id="Group_3304" style="clip-path:url(#SVGID_00000168104681557065886240000017365645750934560186_);">
			<path id="Path_10846" class="st7" d="M40.5,4c3.6,3.3,3.8,10.9,4,18.5c-0.1,7.6-0.4,15.2-4,18.5c-3.3,3.6-10.9,3.8-18.5,4
				c-7.6-0.1-15.2-0.4-18.5-4c-3.6-3.3-3.8-10.9-4-18.5c0.1-7.6,0.4-15.2,4-18.5C6.9,0.4,14.4,0.1,22,0C29.6,0.1,37.2,0.4,40.5,4"/>
			<path id="Path_10847" class="st4" d="M38,22.5c0,8.8-7.1,15.9-15.9,15.9S6.1,31.3,6.1,22.5c0-8.8,7.1-15.9,15.9-15.9l0,0
				C30.8,6.6,38,13.7,38,22.5"/>
			<path id="Path_10848" class="st7" d="M15.2,23.4l4.1,4.1c0.2,0.2,0.6,0.2,0.9,0l8.7-8.7c0.2-0.2,0.2-0.6,0-0.9l-0.5-0.5
				c-0.2-0.2-0.6-0.2-0.9,0l-7.3,7.5c-0.2,0.2-0.6,0.2-0.9,0l-2.7-2.8c-0.2-0.2-0.6-0.2-0.9,0l-0.5,0.5C15,22.8,14.9,23.2,15.2,23.4
				C15.1,23.4,15.2,23.4,15.2,23.4"/>
		</g>
	</g>
</g>
<g id="Layer_4" class="st0">
	<g class="st1">
		<defs>
			<rect id="SVGID_00000075842453028879495380000004344287818884188300_" x="-0.5" width="45" height="45"/>
		</defs>
		<clipPath id="SVGID_00000147904142510338835440000000050840370580055721_">
			<use xlink:href="#SVGID_00000075842453028879495380000004344287818884188300_"  style="overflow:visible;"/>
		</clipPath>
		<g id="Group_3308" style="clip-path:url(#SVGID_00000147904142510338835440000000050840370580055721_);">
			<path id="Path_10859" class="st7" d="M40.5,4c3.6,3.3,3.8,10.9,4,18.5c-0.1,7.6-0.4,15.2-4,18.5c-3.3,3.6-10.9,3.8-18.5,4
				c-7.6-0.1-15.2-0.4-18.5-4c-3.6-3.3-3.8-10.9-4-18.5c0.1-7.6,0.4-15.2,4-18.5C6.9,0.4,14.4,0.1,22,0C29.6,0.1,37.2,0.4,40.5,4"/>
			<path id="Path_10860" class="st4" d="M32.6,15.1V35c0,1.5-1.2,2.7-2.7,2.7H14.1c-1.5,0-2.7-1.2-2.7-2.7V10c0-1.5,1.2-2.7,2.7-2.7
				h10.8L32.6,15.1z"/>
			<path id="Path_10861" class="st9" d="M27,15.1h5.6l-7.7-7.7V13C24.9,14.2,25.8,15.1,27,15.1"/>
			<path id="Path_10862" class="st9" d="M22.8,12h-8.6c-0.4,0-0.7-0.3-0.7-0.7c0-0.4,0.3-0.7,0.7-0.7c0,0,0,0,0,0h8.6
				c0.4,0,0.7,0.3,0.7,0.7C23.4,11.7,23.1,12,22.8,12C22.8,12,22.8,12,22.8,12"/>
			<path id="Path_10863" class="st9" d="M22.8,16.7h-8.6c-0.4,0-0.7-0.3-0.7-0.7s0.3-0.7,0.7-0.7h8.6c0.4,0,0.7,0.3,0.7,0.7
				S23.1,16.7,22.8,16.7"/>
			<path id="Path_10864" class="st9" d="M29.9,21.3H14.2c-0.4,0-0.7-0.3-0.7-0.7s0.3-0.7,0.7-0.7h15.7c0.4,0,0.7,0.3,0.7,0.7
				S30.2,21.3,29.9,21.3"/>
			<path id="Path_10865" class="st9" d="M26.5,26H14.2c-0.4,0-0.7-0.3-0.7-0.7s0.3-0.7,0.7-0.7h12.3c0.4,0,0.7,0.3,0.7,0.7
				S26.8,26,26.5,26"/>
			<path id="Path_10866" class="st9" d="M20.5,30.6h-6.3c-0.4,0-0.7-0.3-0.7-0.7s0.3-0.7,0.7-0.7h6.3c0.4,0,0.7,0.3,0.7,0.7
				S20.8,30.6,20.5,30.6"/>
		</g>
	</g>
</g>
<g id="Layer_5">
	<g>
		<defs>
			<rect id="SVGID_00000182519002491448755130000001888305718739446462_" x="-0.5" width="45" height="45"/>
		</defs>
		<clipPath id="SVGID_00000063600260309672046540000015912209016699949701_">
			<use xlink:href="#SVGID_00000182519002491448755130000001888305718739446462_"  style="overflow:visible;"/>
		</clipPath>
		<g id="Group_3302" style="clip-path:url(#SVGID_00000063600260309672046540000015912209016699949701_);">
			<path id="Path_10843" class="st11" d="M40.5,4c3.6,3.3,3.8,10.9,4,18.5c-0.1,7.6-0.4,15.2-4,18.5c-3.3,3.6-10.9,3.8-18.5,4
				c-7.6-0.1-15.2-0.4-18.5-4c-3.6-3.3-3.8-10.9-4-18.5c0.1-7.6,0.4-15.2,4-18.5C6.9,0.4,14.4,0.1,22,0C29.6,0.1,37.2,0.4,40.5,4"/>
			<path id="Path_10844" class="st4" d="M38,22.5c0,8.8-7.1,15.9-15.9,15.9S6.1,31.3,6.1,22.5c0-8.8,7.1-15.9,15.9-15.9l0,0
				C30.8,6.6,38,13.7,38,22.5"/>
			<path id="Path_10845" class="st11" d="M23.2,22.5l4-4c0.1-0.1,0.2-0.3,0.2-0.5c0-0.1-0.1-0.3-0.2-0.4l-0.4-0.4
				c-0.2-0.2-0.6-0.2-0.8,0L22,21.3l-4-4.1c-0.1-0.1-0.3-0.1-0.5-0.2c-0.1,0-0.3,0.1-0.4,0.2l-0.4,0.4c-0.2,0.2-0.2,0.6,0,0.9l4.1,4
				l-4.1,4c-0.1,0.1-0.1,0.3-0.2,0.5c0,0.1,0.1,0.3,0.2,0.4l0.4,0.4c0.2,0.2,0.6,0.2,0.8,0l4-4l4,4c0.2,0.2,0.6,0.2,0.8,0l0.4-0.4
				c0.2-0.2,0.2-0.6,0-0.8L23.2,22.5z"/>
		</g>
	</g>
</g>
</svg>
