<?xml version="1.0" encoding="utf-8"?>
<!-- Generator: Adobe Illustrator 27.4.0, SVG Export Plug-In . SVG Version: 6.00 Build 0)  -->
<svg version="1.1" xmlns="http://www.w3.org/2000/svg" xmlns:xlink="http://www.w3.org/1999/xlink" x="0px" y="0px"
	 viewBox="0 0 45 45" style="enable-background:new 0 0 45 45;" xml:space="preserve">
<style type="text/css">
	.st0{display:none;}
	.st1{display:inline;}
	.st2{clip-path:url(#SVGID_00000170984048883267764750000003188244448794095530_);}
	.st3{fill:#FAA51A;}
	.st4{fill:#FFFFFF;}
	.st5{clip-path:url(#SVGID_00000095298415849580174200000012378591722823061156_);}
</style>
<g id="Layer_1" class="st0">
	<g class="st1">
		<defs>
			<rect id="SVGID_1_" width="45" height="45"/>
		</defs>
		<clipPath id="SVGID_00000057858907186482733110000014663425196830858902_">
			<use xlink:href="#SVGID_1_"  style="overflow:visible;"/>
		</clipPath>
		<g id="Group_3312" style="clip-path:url(#SVGID_00000057858907186482733110000014663425196830858902_);">
			<path id="Path_10870" class="st3" d="M41,4c3.6,3.3,3.8,10.9,4,18.5c-0.1,7.6-0.4,15.2-4,18.5c-3.3,3.6-10.9,3.8-18.5,4
				C14.9,44.9,7.3,44.6,4,41c-3.6-3.3-3.8-10.9-4-18.5C0.1,14.9,0.4,7.3,4,4c3.3-3.6,10.9-3.8,18.5-4C30.1,0.1,37.7,0.4,41,4"/>
			<path id="Path_10871" class="st4" d="M38.4,22.5c0,8.8-7.1,15.9-15.9,15.9S6.6,31.3,6.6,22.5c0-8.8,7.1-15.9,15.9-15.9l0,0
				C31.3,6.6,38.4,13.7,38.4,22.5"/>
			<path id="Path_10872" class="st3" d="M22.5,30.1c-3.6,0-6.5-2.9-6.5-6.5c0-1.7,0.7-3.4,1.9-4.6c0.3-0.3,0.8-0.3,1.1,0
				s0.3,0.8,0,1.1c-1.9,1.9-1.9,5,0,7c1.9,1.9,5,1.9,7,0c1.9-1.9,1.9-5,0-7c0,0,0,0,0,0c-0.3-0.3-0.3-0.8,0-1.1s0.8-0.3,1.1,0
				c2.5,2.5,2.6,6.7,0,9.2C25.9,29.4,24.2,30.1,22.5,30.1"/>
			<path id="Path_10873" class="st3" d="M22.5,23.6c-0.4,0-0.8-0.4-0.8-0.8l0,0v-7.2c0-0.4,0.4-0.8,0.8-0.8c0.4,0,0.8,0.4,0.8,0.8
				v7.2C23.3,23.3,22.9,23.6,22.5,23.6L22.5,23.6"/>
		</g>
	</g>
</g>
<g id="Layer_2">
	<g>
		<defs>
			<rect id="SVGID_00000093888548018755981950000015128751223395144629_" width="45" height="45"/>
		</defs>
		<clipPath id="SVGID_00000080199599125896141390000015210481442482095036_">
			<use xlink:href="#SVGID_00000093888548018755981950000015128751223395144629_"  style="overflow:visible;"/>
		</clipPath>
		<g id="Group_3310" style="clip-path:url(#SVGID_00000080199599125896141390000015210481442482095036_);">
			<path id="Path_10867" class="st3" d="M41,4c3.6,3.3,3.8,10.9,4,18.5c-0.1,7.6-0.4,15.2-4,18.5c-3.3,3.6-10.9,3.8-18.5,4
				C14.9,44.9,7.3,44.6,4,41c-3.6-3.3-3.8-10.9-4-18.5C0.1,14.9,0.4,7.3,4,4c3.3-3.6,10.9-3.8,18.5-4C30.1,0.1,37.7,0.4,41,4"/>
			<path id="Path_10868" class="st4" d="M38.4,22.5c0,8.8-7.1,15.9-15.9,15.9S6.6,31.3,6.6,22.5c0-8.8,7.1-15.9,15.9-15.9l0,0
				C31.3,6.6,38.4,13.7,38.4,22.5"/>
			<path id="Path_10869" class="st3" d="M21.3,28.4c0-0.7,0.5-1.3,1.2-1.3c0,0,0.1,0,0.1,0c0.7,0,1.3,0.7,1.2,1.4
				c0,0.7-0.6,1.2-1.2,1.2C21.8,29.7,21.3,29.2,21.3,28.4C21.3,28.5,21.3,28.4,21.3,28.4 M21.8,25.4l-0.3-10.1h2l-0.3,10.1H21.8z"/>
		</g>
	</g>
</g>
</svg>
